PathFileType	4	(X/Y/Z)	Walk3.trc
DataRate	CameraRate	NumFrames	NumMarkers	Units	OrigDataRate	OrigDataStartFrame	OrigNumFrames
200.000000	200.000000	8	59	mm	200.000000	351	545
Frame#	Times		LBHD		C7		T10		RBack		LPSI		RPSI		RCAR		LElbowM		RElbowM		LUA1		LLFC		LFHD		RFA1		LWRU		LCAR		RTB1		LACR1		RUA1		CLAV		RTH2		RTH3		LWRR		RToe		RACR1		RTB3		RTB4		RWRU		RCAL		RMT5		RBHD		RTH4		RLFC		LFA1		RTH1		RWRR		RMT1		RFHD		LTH1		STRN		LTH3		LTH4		RTB2		RElbow		RMMAL		LElbow		LTH2		LTB3		RASI		LASI		LCAL		LMT1		LTB2		LLMAL		RLMAL		LMT5		LToe		LTB1		LMMAL		LTB4
			X1	Y1	Z1	X2	Y2	Z2	X3	Y3	Z3	X4	Y4	Z4	X5	Y5	Z5	X6	Y6	Z6	X7	Y7	Z7	X8	Y8	Z8	X9	Y9	Z9	X10	Y10	Z10	X11	Y11	Z11	X12	Y12	Z12	X13	Y13	Z13	X14	Y14	Z14	X15	Y15	Z15	X16	Y16	Z16	X17	Y17	Z17	X18	Y18	Z18	X19	Y19	Z19	X20	Y20	Z20	X21	Y21	Z21	X22	Y22	Z22	X23	Y23	Z23	X24	Y24	Z24	X25	Y25	Z25	X26	Y26	Z26	X27	Y27	Z27	X28	Y28	Z28	X29	Y29	Z29	X30	Y30	Z30	X31	Y31	Z31	X32	Y32	Z32	X33	Y33	Z33	X34	Y34	Z34	X35	Y35	Z35	X36	Y36	Z36	X37	Y37	Z37	X38	Y38	Z38	X39	Y39	Z39	X40	Y40	Z40	X41	Y41	Z41	X42	Y42	Z42	X43	Y43	Z43	X44	Y44	Z44	X45	Y45	Z45	X46	Y46	Z46	X47	Y47	Z47	X48	Y48	Z48	X49	Y49	Z49	X50	Y50	Z50	X51	Y51	Z51	X52	Y52	Z52	X53	Y53	Z53	X54	Y54	Z54	X55	Y55	Z55	X56	Y56	Z56	X57	Y57	Z57	X58	Y58	Z58	X59	Y59	Z59

351	1.755	-166.24	1467.5	-64.991	-198.15	1334.3	4.1395	-226.5	1063.6	-8.1659	-226.44	1231.8	127.49	-251.29	884.02	-33.169	-244.49	874.98	64.625	-153.81	713.3	324.91	-172.88	950.84	-211.18	-223.96	938.61	185.23	-108.15	1106.8	-249.09	-204.11	436.26	-140	6.2338	1462.8	-43.222	-206.7	850.08	282.98	-26.081	765.86	-285.24	34.238	748.28	-295.53	101.57	338.9	48.076	-112.97	1276.4	-160.23	-149.07	1113.2	236.55	-72.505	1254.6	10.547	32.793	656.7	151.02	0.23908	536.26	151.26	31.9	787.33	-244.81	280.69	48.494	31.706	-129.36	1267.7	159.71	138.94	157.16	49.558	114.72	247.78	52.115	-191.65	738.67	281.92	73.451	34.588	79.391	210.84	42.537	80.365	-166.96	1477.6	58.058	-32.353	623.22	176.84	51.154	452.66	132.33	-85.428	872.82	-290.05	-60.797	704.43	202.31	-116.64	745.63	284.21	221.14	64.946	28.71	12.751	1473.4	32.957	-114.96	717.71	-195.57	-8.9479	1151	4.8322	-149.06	536.37	-149.51	-128.59	627.18	-171.54	95.858	243.65	120.8	-196.03	975.99	269.34	121.77	74.687	18.631	-142.36	989.46	-274.37	-65.488	627.8	-134.82	-330.91	170.42	-36.861	-14.047	845.62	137.04	14.502	866.27	-164.15	-478.93	102.66	-32.527	-332.59	53.391	-25.11	-307.36	257.62	-113.79	-424.13	109.65	-76.758	128.94	66.57	97.309	-362.23	42.732	-79.846	-289.36	24.542	-32.827	-224.13	317.7	-55.814	-404.66	108.73	2.0935	-284.87	248.8	-46.986
352	1.76	-160.55	1468.1	-64.242	-192.42	1334.8	5.0782	-220.57	1064.1	-7.3818	-220.51	1232.2	128.5	-245.11	884.16	-32.927	-238.43	875.38	64.904	-147.49	713.15	325.13	-167.1	951.31	-209.93	-217.13	938.77	185.58	-102.63	1107.2	-248.14	-196.73	436.47	-140.62	11.941	1463.3	-42.592	-200.02	850.12	283.32	-20.971	765.99	-284.39	39.307	748.3	-294.81	105.81	338.8	47.974	-107.35	1276.9	-159.37	-142.41	1113.4	237.19	-66.748	1255.2	11.375	39.08	657.12	150.9	5.6754	536.93	151.67	37.146	787.32	-244.08	281.48	45.453	31.124	-123.49	1268.2	160.64	141.01	156.6	49.361	117.89	247.53	51.989	-185.39	738.67	282.31	73.959	34.939	79.504	211.5	40.825	80.145	-161.17	1478.2	58.816	-26.108	624.17	177.24	56.304	453	132.61	-80.037	873.11	-289.06	-53.738	705.62	202.73	-110.36	745.35	284.3	222.09	62.979	28.364	18.526	1473.9	33.598	-108.51	718.35	-195.34	-3.0707	1151.8	5.6994	-141.88	536.68	-150.02	-121.75	627.62	-171.68	99.5	243.62	120.8	-189.03	975.94	269.73	122.77	74.313	18.617	-136.71	989.83	-273.22	-58.584	628.34	-135.1	-326.74	172.18	-37.516	-8.1597	846.46	137.73	17.948	865.87	-163.85	-475.45	107.46	-32.477	-331.19	53.601	-25.152	-302.34	259.26	-114.34	-421.05	112.94	-77.013	129.97	66.151	97.299	-360.99	43.586	-79.773	-289.57	24.512	-32.564	-217.88	317.92	-56.714	-401.19	111.62	1.6802	-279.63	249.94	-47.7
353	1.765	-154.84	1468.8	-63.497	-186.7	1335.5	6.0013	-214.67	1064.7	-6.6094	-214.59	1232.7	129.51	-238.94	884.32	-32.746	-232.4	875.86	65.142	-141.05	713.11	325.33	-161.34	951.94	-208.67	-210.2	939.05	185.91	-97.114	1107.8	-247.19	-189.11	436.73	-141.3	17.664	1463.9	-41.95	-193.23	850.28	283.65	-15.967	766.2	-283.57	44.267	748.38	-294.11	109.85	338.71	47.873	-101.7	1277.5	-158.5	-135.67	1113.6	237.81	-61.003	1256	12.197	45.294	657.57	150.79	10.955	537.67	152.13	42.296	787.37	-243.37	282.13	42.73	30.608	-117.62	1268.8	161.55	142.94	156.1	49.195	120.89	247.32	51.886	-179.01	738.8	282.71	74.403	35.275	79.642	212.05	39.318	79.987	-155.37	1479	59.571	-19.943	625.21	177.69	61.467	453.46	132.89	-74.706	873.52	-288.07	-46.685	706.93	203.19	-103.98	745.14	284.27	222.9	61.226	28.081	24.31	1474.5	34.249	-101.96	719.07	-195.13	2.7925	1152.7	6.5694	-134.5	537.07	-150.56	-114.77	628.15	-171.84	103.07	243.65	120.86	-181.92	976	270.11	123.66	74.024	18.652	-131.08	990.34	-272.08	-51.549	629	-135.37	-322.27	174.01	-38.267	-2.3366	847.41	138.46	21.072	865.48	-163.49	-471.59	112.44	-32.443	-329.69	53.814	-25.182	-297.08	261	-114.96	-417.67	116.36	-77.298	130.9	65.803	97.332	-359.62	44.514	-79.707	-289.82	24.477	-32.281	-211.37	318.18	-57.727	-397.39	114.62	1.2353	-274.09	251.13	-48.505
354	1.77	-149.11	1469.6	-62.758	-180.98	1336.3	6.9059	-208.79	1065.5	-5.8494	-208.69	1233.4	130.51	-232.77	884.51	-32.622	-226.4	876.43	65.34	-134.46	713.2	325.5	-155.58	952.7	-207.39	-203.18	939.44	186.2	-91.6	1108.5	-246.24	-181.24	437.05	-142.04	23.399	1464.6	-41.295	-186.33	850.55	283.95	-11.066	766.5	-282.78	49.12	748.53	-293.45	113.71	338.65	47.785	-96.034	1278.2	-157.64	-128.86	1113.9	238.4	-55.272	1256.8	13.012	51.422	658.06	150.71	16.104	538.46	152.63	47.35	787.47	-242.68	282.64	40.321	30.158	-111.75	1269.5	162.45	144.72	155.65	49.061	123.7	247.14	51.811	-172.51	739.04	283.09	74.793	35.588	79.798	212.51	38.01	79.89	-149.56	1479.8	60.32	-13.865	626.32	178.18	66.633	454.02	133.16	-69.434	874.05	-287.1	-39.674	708.32	203.7	-97.501	745.03	284.14	223.59	59.685	27.859	30.098	1475.2	34.909	-95.309	719.88	-194.94	8.6389	1153.6	7.4399	-126.93	537.53	-151.14	-107.65	628.76	-172	106.53	243.72	120.96	-174.71	976.17	270.45	124.43	73.808	18.729	-125.45	990.97	-270.93	-44.393	629.79	-135.63	-317.48	175.89	-39.115	3.4257	848.47	139.24	23.898	865.09	-163.08	-467.34	117.56	-32.426	-328.09	54.041	-25.202	-291.56	262.85	-115.64	-413.99	119.9	-77.611	131.73	65.517	97.406	-358.11	45.523	-79.653	-290.08	24.441	-31.983	-204.57	318.47	-58.851	-393.25	117.7	0.7619	-268.25	252.37	-49.405
355	1.775	-143.37	1470.5	-62.027	-175.27	1337.2	7.7904	-202.93	1066.3	-5.1025	-202.8	1234.2	131.49	-226.61	884.72	-32.549	-220.41	877.07	65.502	-127.73	713.41	325.66	-149.85	953.6	-206.09	-196.08	939.96	186.46	-86.085	1109.3	-245.31	-173.12	437.42	-142.84	29.143	1465.3	-40.629	-179.34	850.95	284.23	-6.262	766.89	-282.02	53.872	748.74	-292.81	117.37	338.58	47.726	-90.349	1279.1	-156.77	-121.98	1114.4	238.97	-49.559	1257.8	13.817	57.456	658.6	150.64	21.15	539.31	153.17	52.31	787.62	-242	283.05	38.214	29.771	-105.88	1270.3	163.32	146.36	155.25	48.959	126.33	246.99	51.771	-165.89	739.4	283.47	75.133	35.873	79.965	212.88	36.892	79.85	-143.77	1480.7	61.059	-7.8765	627.49	178.7	71.783	454.62	133.41	-64.22	874.68	-286.14	-32.738	709.76	204.22	-90.907	745.03	283.92	224.18	58.344	27.692	35.887	1475.9	35.579	-88.578	720.77	-194.75	14.466	1154.6	8.3092	-119.18	538.07	-151.74	-100.39	629.45	-172.17	109.86	243.82	121.12	-167.41	976.46	270.78	125.09	73.654	18.841	-119.84	991.73	-269.79	-37.124	630.69	-135.88	-312.38	177.82	-40.058	9.1306	849.61	140.05	26.45	864.7	-162.62	-462.7	122.82	-32.428	-326.38	54.297	-25.215	-285.78	264.79	-116.38	-410	123.55	-77.951	132.47	65.279	97.513	-356.44	46.626	-79.617	-290.34	24.409	-31.681	-197.5	318.79	-60.088	-388.77	120.87	0.26405	-262.11	253.66	-50.396
356	1.78	-137.62	1471.5	-61.307	-169.58	1338.1	8.6536	-197.1	1067.2	-4.3691	-196.94	1235.1	132.46	-220.46	884.96	-32.52	-214.46	877.78	65.633	-120.86	713.75	325.78	-144.13	954.63	-204.8	-188.91	940.6	186.69	-80.563	1110.3	-244.39	-164.77	437.83	-143.7	34.893	1466.1	-39.951	-172.24	851.46	284.48	-1.5488	767.37	-281.3	58.528	749.01	-292.19	120.85	338.52	47.707	-84.648	1280.1	-155.92	-115.03	1114.9	239.51	-43.864	1258.8	14.612	63.386	659.19	150.61	26.12	540.19	153.73	57.179	787.83	-241.35	283.37	36.394	29.443	-100.03	1271.3	164.17	147.87	154.88	48.887	128.79	246.85	51.769	-159.14	739.89	283.84	75.429	36.129	80.135	213.18	35.951	79.862	-137.97	1481.7	61.786	-1.9818	628.69	179.24	76.886	455.26	133.66	-59.062	875.42	-285.21	-25.912	711.24	204.77	-84.189	745.16	283.64	224.66	57.194	27.574	41.672	1476.7	36.259	-81.778	721.72	-194.58	20.273	1155.7	9.1762	-111.25	538.67	-152.36	-93.024	630.2	-172.34	113.05	243.92	121.32	-160.03	976.86	271.09	125.67	73.552	18.978	-114.24	992.61	-268.66	-29.753	631.7	-136.13	-306.94	179.8	-41.093	14.782	850.84	140.9	28.757	864.33	-162.11	-457.65	128.2	-32.452	-324.55	54.601	-25.228	-279.74	266.81	-117.17	-405.69	127.3	-78.316	133.13	65.081	97.649	-354.62	47.835	-79.604	-290.6	24.386	-31.384	-190.14	319.14	-61.433	-383.95	124.12	-0.25254	-255.67	254.98	-51.477
357	1.785	-131.87	1472.5	-60.6	-163.92	1339.2	9.4945	-191.29	1068.2	-3.6498	-191.09	1236.1	133.4	-214.33	885.23	-32.527	-208.52	878.55	65.739	-113.84	714.21	325.89	-138.43	955.79	-203.51	-181.68	941.35	186.9	-75.033	1111.3	-243.48	-156.2	438.28	-144.6	40.645	1467	-39.265	-165.06	852.09	284.72	3.0807	767.93	-280.62	63.096	749.34	-291.6	124.15	338.46	47.739	-78.94	1281.1	-155.06	-108.04	1115.6	240.02	-38.19	1259.9	15.395	69.204	659.83	150.59	31.035	541.11	154.32	61.96	788.08	-240.71	283.61	34.84	29.165	-94.185	1272.4	164.99	149.25	154.55	48.843	131.08	246.72	51.808	-152.26	740.5	284.2	75.685	36.352	80.303	213.42	35.17	79.917	-132.19	1482.7	62.498	3.8165	629.91	179.79	81.902	455.88	133.9	-53.955	876.26	-284.29	-19.223	712.71	205.33	-77.342	745.42	283.32	225.06	56.219	27.499	47.449	1477.6	36.947	-74.923	722.74	-194.42	26.056	1156.9	10.039	-103.16	539.33	-153	-85.551	631.02	-172.51	116.05	244	121.56	-152.58	977.39	271.39	126.16	73.494	19.135	-108.66	993.6	-267.56	-22.291	632.81	-136.36	-301.18	181.81	-42.212	20.386	852.14	141.78	30.852	863.97	-161.54	-452.2	133.69	-32.499	-322.58	54.977	-25.248	-273.43	268.92	-118	-401.04	131.15	-78.703	133.71	64.915	97.805	-352.62	49.168	-79.619	-290.82	24.379	-31.108	-182.5	319.51	-62.88	-378.77	127.43	-0.78034	-248.91	256.33	-52.643
358	1.79	-126.12	1473.6	-59.908	-158.27	1340.2	10.313	-185.5	1069.2	-2.9454	-185.26	1237.1	134.33	-208.2	885.53	-32.562	-202.61	879.38	65.825	-106.68	714.81	325.97	-132.76	957.06	-202.24	-174.41	942.2	187.08	-69.491	1112.5	-242.59	-147.39	438.75	-145.55	46.394	1467.9	-38.569	-157.8	852.82	284.93	7.6342	768.57	-279.97	67.582	749.72	-291.02	127.27	338.39	47.83	-73.229	1282.2	-154.22	-101.01	1116.4	240.52	-32.536	1261	16.164	74.903	660.52	150.59	35.912	542.06	154.92	66.658	788.38	-240.08	283.78	33.531	28.931	-88.359	1273.5	165.78	150.5	154.24	48.826	133.21	246.6	51.89	-145.26	741.21	284.54	75.903	36.543	80.464	213.6	34.535	80.005	-126.43	1483.8	63.192	9.5148	631.14	180.34	86.784	456.49	134.14	-48.898	877.19	-283.41	-12.697	714.17	205.89	-70.36	745.83	282.99	225.39	55.404	27.458	53.214	1478.5	37.64	-68.028	723.8	-194.26	31.816	1158.1	10.898	-94.925	540.04	-153.66	-77.986	631.89	-172.67	118.87	244.07	121.83	-145.08	978.02	271.67	126.57	73.471	19.303	-103.11	994.69	-266.48	-14.749	634.02	-136.6	-295.11	183.86	-43.407	25.947	853.5	142.67	32.77	863.63	-160.92	-446.36	139.26	-32.57	-320.46	55.45	-25.286	-266.85	271.09	-118.87	-396.07	135.08	-79.105	134.21	64.773	97.976	-350.45	50.642	-79.669	-290.97	24.398	-30.867	-174.59	319.89	-64.419	-373.26	130.82	-1.3103	-241.86	257.7	-53.883
